<?xml version="1.0" standalone="no"?>
<!DOCTYPE svg PUBLIC "-//W3C//DTD SVG 20010904//EN"
 "http://www.w3.org/TR/2001/REC-SVG-20010904/DTD/svg10.dtd">
<svg version="1.0" xmlns="http://www.w3.org/2000/svg"
 width="1280.000000pt" height="230.000000pt" viewBox="0 0 1280.000000 230.000000"
 preserveAspectRatio="xMidYMid meet">

<g transform="translate(0.000000,230.000000) scale(0.100000,-0.100000)"
fill="#008daa" stroke="none">
<path d="M10194 2266 c-29 -75 168 -292 446 -492 304 -218 686 -396 1125 -524
l70 -20 -85 5 c-709 43 -1816 74 -3573 100 -1215 18 -4518 22 -5517 6 -1815
-29 -2660 -69 -2660 -127 0 -8 3 -14 8 -14 4 -1 27 -5 52 -10 192 -39 992 -80
2120 -110 1496 -39 2798 -53 4930 -53 2156 0 3442 16 4300 53 124 6 286 12
360 15 l135 5 -95 -25 c-421 -111 -837 -295 -1170 -518 -154 -103 -232 -167
-355 -291 -143 -144 -190 -235 -126 -244 39 -6 141 40 396 178 697 379 1038
520 1940 806 226 71 307 108 303 137 -2 13 -15 24 -38 31 -19 6 -54 24 -77 40
-27 18 -182 75 -425 156 -434 145 -574 197 -814 301 -211 91 -590 283 -838
423 -245 139 -315 174 -365 182 -32 5 -42 3 -47 -10z"/>
</g>
</svg>
